<svg xmlns="http://www.w3.org/2000/svg" width="74" height="74" viewBox="0 0 74 74"><g><g><g><path fill="#00467e" d="M37 74c20.435 0 37-16.565 37-37S57.435 0 37 0 0 16.565 0 37s16.565 37 37 37z"/></g><g><g><path fill="#fff" d="M21 22a2 2 0 0 1 2-2h30a2 2 0 1 1 0 4H23a2 2 0 0 1-2-2z"/></g><g><path fill="#fff" d="M21 32a2 2 0 0 1 2-2h16a2 2 0 1 1 0 4H23a2 2 0 0 1-2-2z"/></g><g><path fill="#fff" d="M21 42a2 2 0 0 1 2-2h24a2 2 0 1 1 0 4H23a2 2 0 0 1-2-2z"/></g><g><path fill="#fff" d="M21 52a2 2 0 0 1 2-2h28a2 2 0 1 1 0 4H23a2 2 0 0 1-2-2z"/></g></g></g></g></svg>