<?xml version="1.0" encoding="UTF-8"?>
<svg width="171px" height="161px" viewBox="0 0 171 161" version="1.1" xmlns="http://www.w3.org/2000/svg" xmlns:xlink="http://www.w3.org/1999/xlink">
    <!-- Generator: Sketch 52.3 (67297) - http://www.bohemiancoding.com/sketch -->
    <title>Group 29</title>
    <desc>Created with Sketch.</desc>
    <defs>
        <path d="M105.1858,2.3936 C103.8122,2.3936 102.5712,3.2232 102.0476,4.4914 C101.5172,5.7664 101.813,7.225 102.7854,8.1974 L142.6062,48.0216 C142.9224,48.3378 143.3066,48.5928 143.7248,48.7628 C149.7258,51.2142 153.6086,56.9602 153.6086,63.393 C153.6086,65.2732 155.1284,66.793 157.0086,66.793 C158.8888,66.793 160.4086,65.2732 160.4086,63.393 L160.4086,24.9934 C160.4086,12.5324 150.2664,2.3936 137.8054,2.3936 L105.1858,2.3936 Z M146.948,42.7482 L113.3968,9.1936 L137.8054,9.1936 C146.5196,9.1936 153.6086,16.2826 153.6086,24.9934 L153.6086,47.2498 C151.7114,45.4002 149.4674,43.8668 146.948,42.7482 Z M22.61,2.3936 C10.1456,2.3936 0.0068,12.5324 0.0068,24.9934 C0.0068,37.4578 10.1456,47.5966 22.61,47.5966 L44.6454,47.5966 C45.5464,47.5966 46.41,47.2362 47.0492,46.597 L85.4522,8.1974 C86.428,7.225 86.717,5.7664 86.19,4.4914 C85.663,3.2232 84.422,2.3936 83.0484,2.3936 L22.61,2.3936 Z M6.8102,24.9934 C6.8102,16.2826 13.8958,9.1936 22.61,9.1936 L74.8408,9.1936 L43.2378,40.7966 L22.61,40.7966 C13.8958,40.7966 6.8102,33.711 6.8102,24.9934 Z" id="path-1"></path>
        <polygon id="path-3" points="0.445436524 2.7948 107.608765 2.7948 107.608765 55.8161 0.445436524 55.8161"></polygon>
        <path d="M53.3188,2.7948 C49.3952,2.7948 45.7198,4.3112 42.9658,7.0686 L1.4416,48.5894 C0.4692,49.5652 0.1768,51.0238 0.7072,52.2954 C1.2274,53.567 2.4718,54.3966 3.8454,54.3966 L97.0054,54.3966 C99.0318,54.3966 101.0242,54.7876 102.9248,55.5628 C103.343,55.7362 103.7748,55.8144 104.21,55.8144 C105.3184,55.8144 106.3928,55.2704 107.0422,54.298 C107.9364,52.9482 107.7562,51.1564 106.6138,50.014 L63.6684,7.0686 M47.7734,11.8762 C50.7144,8.9352 55.9164,8.9284 58.8608,11.8762 L94.5812,47.5966 L12.053,47.5966" id="path-5"></path>
        <path d="M53.3188,2.7948 C49.3952,2.7948 45.7198,4.3112 42.9658,7.0686 L1.4416,48.5894 C0.4692,49.5652 0.1768,51.0238 0.7072,52.2954 C1.2274,53.567 2.4718,54.3966 3.8454,54.3966 L97.0054,54.3966 C99.0318,54.3966 101.0242,54.7876 102.9248,55.5628 C103.343,55.7362 103.7748,55.8144 104.21,55.8144 C105.3184,55.8144 106.3928,55.2704 107.0422,54.298 C107.9364,52.9482 107.7562,51.1564 106.6138,50.014 L63.6684,7.0686 C60.911,4.3112 57.2356,2.7948 53.3188,2.7948 Z M47.7734,11.8762 C50.7144,8.9352 55.9164,8.9284 58.8608,11.8762 L94.5812,47.5966 L12.053,47.5966 L47.7734,11.8762 Z" id="path-7"></path>
        <polygon id="path-9" points="0.00918 1.79384 61.2068 1.79384 61.2068 56.59504 0.00918 56.59504"></polygon>
        <path d="M0.0068,4.5934 L0.0068,113.3968 C0.0068,125.8544 10.1456,135.9932 22.61,135.9932 L137.8054,135.9932 C150.2664,135.9932 160.4086,125.8544 160.4086,113.3968 L160.4086,97.3964 C160.4086,95.5162 158.8888,93.9964 157.0086,93.9964 L131.41,93.9964 C122.6958,93.9964 115.6068,86.9074 115.6068,78.1932 C115.6068,69.4824 122.6958,62.3934 131.41,62.3934 L157.0086,62.3934 C158.8888,62.3934 160.4086,60.8736 160.4086,58.9968 L160.4086,42.993 C160.4086,30.5354 150.2664,20.3966 137.8054,20.3966 L22.61,20.3966 C13.8958,20.3966 6.8102,13.311 6.8102,4.5934 C6.8102,2.72 5.287,1.1934 3.4102,1.1934 C1.5266,1.1934 0.0068,2.72 0.0068,4.5934 M6.8102,113.3968 L6.8102,20.74 C10.8834,24.7316 16.4662,27.1966 22.61,27.1966 L137.8054,27.1966 C146.5196,27.1966 153.6086,34.2822 153.6086,42.993 L153.6086,55.5968 L131.41,55.5968 C118.949,55.5968 108.8068,65.7322 108.8068,78.1932 C108.8068,90.6576 118.949,100.793 131.41,100.793 L153.6086,100.793 L153.6086,113.3968 C153.6086,122.1076 146.5196,129.1932 137.8054,129.1932 L22.61,129.1932 C13.8958,129.1932 6.8102,122.1076 6.8102,113.3968" id="path-11"></path>
    </defs>
    <g id="Page-1" stroke="none" stroke-width="1" fill="none" fill-rule="evenodd">
        <g id="gui-r03" transform="translate(-423.000000, -2670.000000)">
            <g id="services" transform="translate(410.000000, 2234.000000)">
                <g id="Group-4-Copy">
                    <g id="Group-29" transform="translate(13.000000, 433.000000)">
                        <path d="M22.60898,16.59982 C13.89478,16.59982 6.80918,23.68882 6.80918,32.39962 C6.80918,41.11382 13.89478,48.19942 22.60898,48.19942 L43.23678,48.19942 L74.83978,16.59982 L22.60898,16.59982 Z M44.64438,54.99942 L22.60898,54.99942 C10.14798,54.99942 0.00918,44.86402 0.00918,32.39962 C0.00918,19.93862 10.14798,9.79982 22.60898,9.79982 L83.04738,9.79982 C84.42438,9.79982 85.66538,10.62942 86.18898,11.89762 C86.71598,13.16922 86.42698,14.63122 85.45118,15.60362 L47.04818,54.00322 C46.41238,54.64242 45.54878,54.99942 44.64438,54.99942 Z M146.94698,50.15442 C149.46978,51.27302 151.71378,52.80642 153.60758,54.65602 L153.60758,32.39962 C153.60758,23.68882 146.51858,16.59982 137.80778,16.59982 L113.39578,16.59982 L146.94698,50.15442 Z M157.00758,74.19922 C155.13078,74.19922 153.60758,72.67942 153.60758,70.79922 C153.60758,64.36302 149.72818,58.62042 143.72378,56.16902 C143.30558,55.99902 142.92478,55.74742 142.60518,55.42442 L102.78438,15.60362 C101.81198,14.63122 101.51958,13.16922 102.04658,11.89762 C102.57358,10.62942 103.81458,9.79982 105.18818,9.79982 L137.80778,9.79982 C150.26878,9.79982 160.40758,19.93862 160.40758,32.39962 L160.40758,70.79922 C160.40758,72.67942 158.88778,74.19922 157.00758,74.19922 Z" id="Fill-1" fill="#262626"></path>
                        <g id="Group-5" transform="translate(0.000000, 7.405880)">
                            <mask id="mask-2" fill="white">
                                <use xlink:href="#path-1"></use>
                            </mask>
                            <g id="Clip-4"></g>
                            <path d="M22.60898,9.19394 C13.89478,9.19394 6.80918,16.28294 6.80918,24.99374 C6.80918,33.70794 13.89478,40.79354 22.60898,40.79354 L137.80778,40.79354 C143.94818,40.79354 149.53098,43.25854 153.60758,47.25014 L153.60758,24.99374 C153.60758,16.28294 146.51858,9.19394 137.80778,9.19394 L22.60898,9.19394 Z M157.00758,66.79334 C155.13078,66.79334 153.60758,65.27354 153.60758,63.39334 C153.60758,54.68254 146.51858,47.59354 137.80778,47.59354 L22.60898,47.59354 C10.14798,47.59354 0.00918,37.45814 0.00918,24.99374 C0.00918,12.53274 10.14798,2.39394 22.60898,2.39394 L137.80778,2.39394 C150.26878,2.39394 160.40758,12.53274 160.40758,24.99374 L160.40758,63.39334 C160.40758,65.27354 158.88778,66.79334 157.00758,66.79334 Z" id="Fill-3" fill="#262626" mask="url(#mask-2)"></path>
                        </g>
                        <g id="Group-8" transform="translate(40.800000, 0.605880)">
                            <mask id="mask-4" fill="white">
                                <use xlink:href="#path-3"></use>
                            </mask>
                            <g id="Clip-7"></g>
                            <path d="M12.05368,47.5949 L94.57848,47.5949 L58.86148,11.8779 C55.91708,8.9267 50.71508,8.9335 47.77408,11.8779 L12.05368,47.5949 Z M104.20728,55.8161 C103.77888,55.8161 103.34368,55.7345 102.92548,55.5645 C101.02488,54.7893 99.03248,54.3949 97.00608,54.3949 L3.84608,54.3949 C2.47248,54.3949 1.22808,53.5653 0.70448,52.2971 C0.17748,51.0255 0.46988,49.5635 1.44228,48.5911 L42.96648,7.0703 C45.72048,4.3129 49.39588,2.7931 53.31948,2.7931 C57.23628,2.7931 60.91168,4.3129 63.66908,7.0703 L106.61448,50.0123 C107.75688,51.1547 107.93708,52.9499 107.03948,54.2997 C106.39348,55.2687 105.31908,55.8161 104.20728,55.8161 Z" id="Fill-6" fill="#262626" mask="url(#mask-4)"></path>
                        </g>
                        <g id="Group-15" transform="translate(40.800000, 0.605880)">
                            <g id="Group-11">
                                <mask id="mask-6" fill="white">
                                    <use xlink:href="#path-5"></use>
                                </mask>
                                <g id="Clip-10"></g>
                                <path d="M53.31846,9.59412 C51.21386,9.59412 49.24526,10.40332 47.77306,11.87552 L-31.71214,91.36072 C-34.76534,94.41732 -34.76534,99.39152 -31.71214,102.44812 L19.95426,154.11112 C23.00746,157.16772 27.98846,157.16772 31.04166,154.11112 L110.52346,74.62932 C111.99906,73.15712 112.80826,71.18852 112.80826,69.08732 C112.80826,66.98272 111.99906,65.01412 110.52346,63.54192 L58.86046,11.87552 C57.38826,10.40332 55.41966,9.59412 53.31846,9.59412 M25.49626,163.19932 C21.74946,163.19932 17.99926,161.77472 15.14326,158.91872 L-36.51974,107.25572 C-42.22834,101.54712 -42.22834,92.25832 -36.51974,86.55312 L42.96546,7.06792 C45.72286,4.31392 49.39826,2.79412 53.31846,2.79412 C57.23526,2.79412 60.91066,4.31392 63.66806,7.06792 L115.33106,58.73432 C118.08846,61.48832 119.60826,65.16372 119.60826,69.08732 C119.60826,73.00412 118.08846,76.67952 115.33106,79.43692 L35.84926,158.91872 C32.99326,161.77472 29.24646,163.19932 25.49626,163.19932" id="Fill-9" fill="#262626" mask="url(#mask-6)"></path>
                            </g>
                            <g id="Group-14">
                                <mask id="mask-8" fill="white">
                                    <use xlink:href="#path-7"></use>
                                </mask>
                                <g id="Clip-13"></g>
                                <path d="M-21.3588,112.80112 L-14.2426,119.91392 L76.3266,29.34472 L69.2138,22.22852 L-21.3588,112.80112 Z M-14.2426,128.12152 C-15.113,128.12152 -15.9834,127.79172 -16.6464,127.12532 L-28.5702,115.20492 C-29.2094,114.56912 -29.5664,113.70212 -29.5664,112.80112 C-29.5664,111.90012 -29.2094,111.03312 -28.5702,110.39732 L66.81,15.01712 C68.136,13.69112 70.2882,13.69112 71.6176,15.01712 L83.5414,26.94092 C84.1772,27.57672 84.5376,28.44032 84.5376,29.34472 C84.5376,30.24572 84.1772,31.10932 83.5414,31.74852 L-11.8388,127.12532 C-12.5052,127.79172 -13.3722,128.12152 -14.2426,128.12152 Z" id="Fill-12" fill="#262626" mask="url(#mask-8)"></path>
                            </g>
                        </g>
                        <g id="Group-23" transform="translate(0.000000, 28.805880)">
                            <path d="M160.4086,43.21156 L160.4086,53.57816 C162.0916,52.46636 163.2068,50.55896 163.2068,48.39316 C163.2068,46.23076 162.0916,44.32336 160.4086,43.21156 M157.0086,61.39476 C155.1284,61.39476 153.6086,59.87156 153.6086,57.99476 L153.6086,38.79496 C153.6086,36.91476 155.1284,35.39496 157.0086,35.39496 C164.1758,35.39496 170.0068,41.22596 170.0068,48.39316 C170.0068,55.56376 164.1758,61.39476 157.0086,61.39476" id="Fill-16" fill="#262626"></path>
                            <g id="Group-20" transform="translate(108.800000, 43.200000)">
                                <mask id="mask-10" fill="white">
                                    <use xlink:href="#path-9"></use>
                                </mask>
                                <g id="Clip-19"></g>
                                <path d="M22.60898,18.19544 C13.89478,18.19544 6.80918,25.28104 6.80918,33.99524 C6.80918,42.70604 13.89478,49.79504 22.60898,49.79504 L48.20758,49.79504 C51.62458,49.79504 54.40918,47.01384 54.40918,43.59344 L54.40918,16.62124 C52.56638,17.62424 50.45158,18.19544 48.20758,18.19544 L22.60898,18.19544 Z M48.20758,56.59504 L22.60898,56.59504 C10.14798,56.59504 0.00918,46.45624 0.00918,33.99524 C0.00918,21.53424 10.14798,11.39544 22.60898,11.39544 L48.20758,11.39544 C51.62458,11.39544 54.40918,8.61424 54.40918,5.19384 C54.40918,3.31704 55.92898,1.79384 57.80918,1.79384 C59.68598,1.79384 61.20918,3.31704 61.20918,5.19384 L61.20918,43.59344 C61.20918,50.76404 55.37818,56.59504 48.20758,56.59504 Z" id="Fill-18" fill="#262626" mask="url(#mask-10)"></path>
                            </g>
                            <path d="M6.80748,19.73864 L6.80748,112.39544 C6.80748,121.10624 13.89648,128.19524 22.60728,128.19524 L137.80608,128.19524 C146.52028,128.19524 153.60928,121.10624 153.60928,112.39544 L153.60928,99.79504 L131.40728,99.79504 C118.94628,99.79504 108.80748,89.65624 108.80748,77.19524 C108.80748,64.73424 118.94628,54.59544 131.40728,54.59544 L153.60928,54.59544 L153.60928,41.99504 C153.60928,33.28084 146.52028,26.19524 137.80608,26.19524 L22.60728,26.19524 C16.46688,26.19524 10.88408,23.73024 6.80748,19.73864 M137.80608,134.99524 L22.60728,134.99524 C10.14628,134.99524 0.00748,124.85644 0.00748,112.39544 L0.00748,3.59544 C0.00748,1.71864 1.52728,0.19544 3.40748,0.19544 C5.28768,0.19544 6.80748,1.71864 6.80748,3.59544 C6.80748,12.30624 13.89648,19.39524 22.60728,19.39524 L137.80608,19.39524 C150.26708,19.39524 160.40928,29.53404 160.40928,41.99504 L160.40928,57.99544 C160.40928,59.87224 158.88608,61.39544 157.00928,61.39544 L131.40728,61.39544 C122.69648,61.39544 115.60748,68.48104 115.60748,77.19524 C115.60748,85.90604 122.69648,92.99504 131.40728,92.99504 L157.00928,92.99504 C158.88608,92.99504 160.40928,94.51824 160.40928,96.39504 L160.40928,112.39544 C160.40928,124.85644 150.26708,134.99524 137.80608,134.99524" id="Fill-21" fill="#262626"></path>
                        </g>
                        <g id="Group-26" transform="translate(0.000000, 27.805880)">
                            <mask id="mask-12" fill="white">
                                <use xlink:href="#path-11"></use>
                            </mask>
                            <g id="Clip-25"></g>
                            <path d="M6.80748,20.73864 L6.80748,113.39544 C6.80748,122.10624 13.89648,129.19524 22.60728,129.19524 L137.80608,129.19524 C146.52028,129.19524 153.60928,122.10624 153.60928,113.39544 L153.60928,42.99504 C153.60928,34.28084 146.52028,27.19524 137.80608,27.19524 L22.60728,27.19524 C16.46688,27.19524 10.88408,24.73024 6.80748,20.73864 M137.80608,135.99524 L22.60728,135.99524 C10.14628,135.99524 0.00748,125.85644 0.00748,113.39544 L0.00748,4.59544 C0.00748,2.71864 1.52728,1.19544 3.40748,1.19544 C5.28768,1.19544 6.80748,2.71864 6.80748,4.59544 C6.80748,13.30624 13.89648,20.39524 22.60728,20.39524 L137.80608,20.39524 C150.26708,20.39524 160.40928,30.53404 160.40928,42.99504 L160.40928,113.39544 C160.40928,125.85644 150.26708,135.99524 137.80608,135.99524" id="Fill-24" fill="#262626" mask="url(#mask-12)"></path>
                        </g>
                        <path d="M131.40898,105.80018 L131.20498,106.00078 C131.20498,106.10958 131.29678,106.20138 131.40898,106.20138 L131.40898,105.80018 Z M131.40898,112.60018 C127.77098,112.60018 124.80958,109.63878 124.80958,106.00078 C124.80958,102.36278 127.77098,99.40138 131.40898,99.40138 C135.04698,99.40138 138.00498,102.36278 138.00498,106.00078 C138.00498,109.63878 135.04698,112.60018 131.40898,112.60018 Z" id="Fill-27" fill="#262626"></path>
                    </g>
                </g>
            </g>
        </g>
    </g>
</svg>