<svg xmlns="http://www.w3.org/2000/svg" width="352" height="328" viewBox="0 0 176 164"><defs><clipPath id="9g6ca"><path d="M0 0h176v163.639H0z"/></clipPath></defs><g><g><g/><g clip-path="url(#9g6ca)"><path fill="#262626" d="M9.433 163.483a3.143 3.143 0 0 1-3.143-3.143v-12.576a3.143 3.143 0 0 1 3.143-3.144h157.143a3.14 3.14 0 0 1 3.143 3.144v12.576a3.14 3.14 0 0 1-3.143 3.143zm3.142-6.287h150.848v-6.288H12.575z"/></g><g clip-path="url(#9g6ca)"><path fill="#262626" d="M22.003 150.91a3.143 3.143 0 0 1-3.143-3.144V97.464a3.145 3.145 0 0 1 3.143-3.144h25.143a3.145 3.145 0 0 1 3.143 3.144v50.302a3.143 3.143 0 0 1-3.143 3.144zm3.143-6.287h18.847v-44.015H25.146z"/></g><g clip-path="url(#9g6ca)"><path fill="#262626" d="M75.433 150.91a3.143 3.143 0 0 1-3.143-3.144V97.464a3.145 3.145 0 0 1 3.143-3.144h25.143a3.143 3.143 0 0 1 3.143 3.144v50.302a3.14 3.14 0 0 1-3.143 3.144zm3.14-6.287h18.852v-44.015H78.574z"/></g><g clip-path="url(#9g6ca)"><path fill="#262626" d="M128.853 150.91a3.14 3.14 0 0 1-3.143-3.144V97.464a3.143 3.143 0 0 1 3.143-3.144h25.143a3.143 3.143 0 0 1 3.143 3.144v50.302a3.14 3.14 0 0 1-3.143 3.144zm3.143-6.287h18.847v-44.015h-18.847z"/></g><g clip-path="url(#9g6ca)"><path fill="#262626" d="M9.433 88.031a3.145 3.145 0 0 1-3.143-3.144V66.024a3.145 3.145 0 0 1 3.143-3.144h157.143a3.143 3.143 0 0 1 3.143 3.144v18.863a3.143 3.143 0 0 1-3.143 3.144zm3.142-6.298h150.848V69.168H12.575z"/></g><g clip-path="url(#9g6ca)"><path fill="#262626" d="M3.144 69.165a3.143 3.143 0 0 1-1.87-5.671L86.13.615a3.149 3.149 0 0 1 3.74 0l84.857 62.879a3.14 3.14 0 0 1 1.113 3.511 3.142 3.142 0 0 1-2.983 2.16zm9.523-6.288h150.655L87.996 7.057z"/></g><g clip-path="url(#9g6ca)"><path fill="#262626" d="M15.713 100.603a3.145 3.145 0 0 1-3.143-3.143V84.884a3.145 3.145 0 0 1 3.143-3.144h37.714a3.145 3.145 0 0 1 3.143 3.144V97.46a3.145 3.145 0 0 1-3.143 3.143zm3.143-6.287h31.418v-6.288H18.856z"/></g><g clip-path="url(#9g6ca)"><path fill="#262626" d="M69.143 100.603A3.145 3.145 0 0 1 66 97.46V84.884a3.145 3.145 0 0 1 3.143-3.144h37.714A3.143 3.143 0 0 1 110 84.884V97.46a3.143 3.143 0 0 1-3.143 3.143zm3.143-6.287h31.418v-6.288H72.286z"/></g><g clip-path="url(#9g6ca)"><path fill="#262626" d="M122.573 100.603a3.143 3.143 0 0 1-3.143-3.143V84.884a3.143 3.143 0 0 1 3.143-3.144h37.714a3.143 3.143 0 0 1 3.143 3.144V97.46a3.143 3.143 0 0 1-3.143 3.143zm3.143-6.287h31.418v-6.288h-31.418z"/></g><g clip-path="url(#9g6ca)"><path fill="#262626" d="M172.857 163.642H3.143A3.143 3.143 0 0 1 0 160.498c0-1.738 1.408-3.458 3.143-3.458h169.714a3.143 3.143 0 0 1 3.143 3.144c0 1.738-1.405 3.458-3.143 3.458"/></g></g></g></svg>